<svg xmlns="http://www.w3.org/2000/svg" width="144" height="144" viewBox="0 0 144 144" role="img" aria-label="AI">
  <defs>
    <filter id="shadow" x="-25%" y="-25%" width="150%" height="160%">
      <feDropShadow dx="0" dy="4" stdDeviation="4" flood-color="#000000" flood-opacity=".18"/>
    </filter>
  </defs>
  <g filter="url(#shadow)">
    <rect x="31" y="31" width="82" height="82" rx="18" fill="none" stroke="#8f9bb3" stroke-width="8"/>
    <path d="M19 53h12M19 72h12M19 91h12M113 53h12M113 72h12M113 91h12M53 19v12M72 19v12M91 19v12M53 113v12M72 113v12M91 113v12" fill="none" stroke="#b7c0d3" stroke-width="5" stroke-linecap="round" stroke-linejoin="round"/>
    <path d="M48 95l14-44 14 44M53 80h23" fill="none" stroke="#8f9bb3" stroke-width="8" stroke-linecap="round" stroke-linejoin="round"/>
    <path d="M92 52v43" fill="none" stroke="#8f9bb3" stroke-width="8" stroke-linecap="round" stroke-linejoin="round"/>
    <path d="M45 109h64" fill="none" stroke="#b7c0d3" stroke-width="5" stroke-linecap="round" stroke-linejoin="round"/>
  </g>
</svg>
