<svg xmlns="http://www.w3.org/2000/svg" width="144" height="144" viewBox="0 0 144 144" role="img" aria-label="Game / GAME">
  <defs>
    <filter id="shadow" x="-25%" y="-25%" width="150%" height="160%">
      <feDropShadow dx="0" dy="4" stdDeviation="4" flood-color="#000000" flood-opacity=".18"/>
    </filter>
  </defs>
  <g filter="url(#shadow)">
    <path d="M37 59c-16 0-26 17-30 42-3 20 5 32 18 32 10 0 18-9 24-20h46c6 11 14 20 24 20 13 0 21-12 18-32-4-25-14-42-30-42-11 0-18 4-24 10H61c-6-6-13-10-24-10z" fill="none" stroke="#8f9bb3" stroke-width="8" stroke-linecap="round" stroke-linejoin="round"/>
    <path d="M30 87h28M44 73v28" fill="none" stroke="#8f9bb3" stroke-width="7" stroke-linecap="round" stroke-linejoin="round"/>
    <circle cx="101" cy="84" r="6.5" fill="#8f9bb3"/>
    <circle cx="118" cy="101" r="6.5" fill="#8f9bb3"/>
  </g>
</svg>
