<svg xmlns="http://www.w3.org/2000/svg" width="144" height="144" viewBox="0 0 144 144" role="img" aria-label="香港 / HK">
  <defs>
    <filter id="shadow" x="-25%" y="-25%" width="150%" height="160%">
      <feDropShadow dx="0" dy="4" stdDeviation="4" flood-color="#000000" flood-opacity=".18"/>
    </filter>
  </defs>
  <g filter="url(#shadow)">
    <clipPath id="flag"><rect x="13" y="28" width="118" height="88" rx="9"/></clipPath>
    <rect x="13" y="28" width="118" height="88" rx="9" fill="#f8fafc"/>
    <g clip-path="url(#flag)">
      <rect x="13" y="28" width="118" height="88" fill="#d21f45"/>
      <g transform="translate(72 72)">
        <path d="M0-36c10 13 9 25-3 35 18-2 29 4 34 19 5-17 16-24 32-21-13-12-14-24-4-36-16 6-28 3-36-10-2 17-10 26-28 29 16 6 22 16 19 30-13-11-15-22-14-46z" fill="#f8fafc"/>
        <circle cx="15" cy="-4" r="4.5" fill="#d21f45"/>
      </g>
    </g>
    <rect x="13" y="28" width="118" height="88" rx="9" fill="none" stroke="#ffffff" stroke-width="2" stroke-opacity=".85"/>
  </g>
</svg>
