<svg xmlns="http://www.w3.org/2000/svg" width="144" height="144" viewBox="0 0 144 144" role="img" aria-label="国际基础服务 / INTL">
  <defs>
    <filter id="shadow" x="-25%" y="-25%" width="150%" height="160%">
      <feDropShadow dx="0" dy="4" stdDeviation="4" flood-color="#000000" flood-opacity=".18"/>
    </filter>
  </defs>
  <g filter="url(#shadow)">
    <circle cx="72" cy="68" r="44" fill="none" stroke="#8f9bb3" stroke-width="8"/>
    <path d="M28 68h88M72 24c17 18 25 33 25 44s-8 26-25 44M72 24c-17 18-25 33-25 44s8 26 25 44" fill="none" stroke="#8f9bb3" stroke-width="6" stroke-linecap="round" stroke-linejoin="round"/>
    <path d="M38 43c12 9 25 13 39 13 11 0 22-3 32-9M38 93c12-9 25-13 39-13 11 0 22 3 32 9" fill="none" stroke="#b7c0d3" stroke-width="5" stroke-linecap="round" stroke-linejoin="round"/>
    <path d="M26 108c21 14 42 21 64 21 12 0 23-2 33-7" fill="none" stroke="#b7c0d3" stroke-width="5" stroke-linecap="round" stroke-linejoin="round"/>
  </g>
</svg>
