<svg xmlns="http://www.w3.org/2000/svg" width="144" height="144" viewBox="0 0 144 144" role="img" aria-label="韩国 / KR">
  <defs>
    <filter id="shadow" x="-25%" y="-25%" width="150%" height="160%">
      <feDropShadow dx="0" dy="4" stdDeviation="4" flood-color="#000000" flood-opacity=".18"/>
    </filter>
  </defs>
  <g filter="url(#shadow)">
    <clipPath id="flag"><rect x="13" y="28" width="118" height="88" rx="9"/></clipPath>
    <rect x="13" y="28" width="118" height="88" rx="9" fill="#f8fafc"/>
    <g clip-path="url(#flag)">
      <rect x="13" y="28" width="118" height="88" fill="#f8fafc"/>
      <circle cx="72" cy="72" r="23" fill="#23477d"/>
      <path d="M49 72a23 23 0 0 1 46 0c-8-7-15-7-23 0s-15 7-23 0z" fill="#d21f45"/>
      <path d="M49 72a23 23 0 0 0 46 0c-8-7-15-7-23 0s-15 7-23 0z" fill="#23477d"/>
      <path d="M28 47l15-15M39 52l15-15M100 32l15 15M91 37l15 15M28 97l15 15M39 92l15 15M100 112l15-15M91 107l15-15" stroke="#111827" stroke-width="3.6" stroke-linecap="round"/>
    </g>
    <rect x="13" y="28" width="118" height="88" rx="9" fill="none" stroke="#ffffff" stroke-width="2" stroke-opacity=".85"/>
  </g>
</svg>
