<svg xmlns="http://www.w3.org/2000/svg" width="912" height="848" viewBox="0 0 912 848">
  <rect width="912" height="848" fill="#020617"/>
  <text x="36" y="24" font-family="-apple-system, BlinkMacSystemFont, 'Segoe UI', sans-serif" font-size="18" font-weight="800" fill="#f8fafc">Qidewei Policy Icons</text>

  <g transform="translate(36 36)">
    <rect x="0" y="0" width="136" height="162" rx="16" fill="#111827"/>
    <rect x="0.5" y="0.5" width="135" height="161" rx="15.5" fill="none" stroke="#ffffff" stroke-opacity=".08"/>
    <image href="proxy.svg" x="16" y="12" width="104" height="104"/>
    <text x="68" y="134" text-anchor="middle" font-family="-apple-system, BlinkMacSystemFont, 'Segoe UI', sans-serif" font-size="14" font-weight="700" fill="#f8fafc">PROXY</text>
    <text x="68" y="151" text-anchor="middle" font-family="-apple-system, BlinkMacSystemFont, 'Segoe UI', sans-serif" font-size="9" fill="#94a3b8">proxy.png</text>
  </g>
  <g transform="translate(204 36)">
    <rect x="0" y="0" width="136" height="162" rx="16" fill="#111827"/>
    <rect x="0.5" y="0.5" width="135" height="161" rx="15.5" fill="none" stroke="#ffffff" stroke-opacity=".08"/>
    <image href="auto.svg" x="16" y="12" width="104" height="104"/>
    <text x="68" y="134" text-anchor="middle" font-family="-apple-system, BlinkMacSystemFont, 'Segoe UI', sans-serif" font-size="14" font-weight="700" fill="#f8fafc">Auto</text>
    <text x="68" y="151" text-anchor="middle" font-family="-apple-system, BlinkMacSystemFont, 'Segoe UI', sans-serif" font-size="9" fill="#94a3b8">auto.png</text>
  </g>
  <g transform="translate(372 36)">
    <rect x="0" y="0" width="136" height="162" rx="16" fill="#111827"/>
    <rect x="0.5" y="0.5" width="135" height="161" rx="15.5" fill="none" stroke="#ffffff" stroke-opacity=".08"/>
    <image href="final.svg" x="16" y="12" width="104" height="104"/>
    <text x="68" y="134" text-anchor="middle" font-family="-apple-system, BlinkMacSystemFont, 'Segoe UI', sans-serif" font-size="14" font-weight="700" fill="#f8fafc">FINAL</text>
    <text x="68" y="151" text-anchor="middle" font-family="-apple-system, BlinkMacSystemFont, 'Segoe UI', sans-serif" font-size="9" fill="#94a3b8">final.png</text>
  </g>
  <g transform="translate(540 36)">
    <rect x="0" y="0" width="136" height="162" rx="16" fill="#111827"/>
    <rect x="0.5" y="0.5" width="135" height="161" rx="15.5" fill="none" stroke="#ffffff" stroke-opacity=".08"/>
    <image href="intl-services.svg" x="16" y="12" width="104" height="104"/>
    <text x="68" y="134" text-anchor="middle" font-family="-apple-system, BlinkMacSystemFont, 'Segoe UI', sans-serif" font-size="14" font-weight="700" fill="#f8fafc">国际基础服务</text>
    <text x="68" y="151" text-anchor="middle" font-family="-apple-system, BlinkMacSystemFont, 'Segoe UI', sans-serif" font-size="9" fill="#94a3b8">intl-services.png</text>
  </g>
  <g transform="translate(708 36)">
    <rect x="0" y="0" width="136" height="162" rx="16" fill="#111827"/>
    <rect x="0.5" y="0.5" width="135" height="161" rx="15.5" fill="none" stroke="#ffffff" stroke-opacity=".08"/>
    <image href="ai.svg" x="16" y="12" width="104" height="104"/>
    <text x="68" y="134" text-anchor="middle" font-family="-apple-system, BlinkMacSystemFont, 'Segoe UI', sans-serif" font-size="14" font-weight="700" fill="#f8fafc">AI</text>
    <text x="68" y="151" text-anchor="middle" font-family="-apple-system, BlinkMacSystemFont, 'Segoe UI', sans-serif" font-size="9" fill="#94a3b8">ai.png</text>
  </g>
  <g transform="translate(36 230)">
    <rect x="0" y="0" width="136" height="162" rx="16" fill="#111827"/>
    <rect x="0.5" y="0.5" width="135" height="161" rx="15.5" fill="none" stroke="#ffffff" stroke-opacity=".08"/>
    <image href="global-community.svg" x="16" y="12" width="104" height="104"/>
    <text x="68" y="134" text-anchor="middle" font-family="-apple-system, BlinkMacSystemFont, 'Segoe UI', sans-serif" font-size="14" font-weight="700" fill="#f8fafc">国际社区</text>
    <text x="68" y="151" text-anchor="middle" font-family="-apple-system, BlinkMacSystemFont, 'Segoe UI', sans-serif" font-size="9" fill="#94a3b8">global-community.png</text>
  </g>
  <g transform="translate(204 230)">
    <rect x="0" y="0" width="136" height="162" rx="16" fill="#111827"/>
    <rect x="0.5" y="0.5" width="135" height="161" rx="15.5" fill="none" stroke="#ffffff" stroke-opacity=".08"/>
    <image href="chinese-content.svg" x="16" y="12" width="104" height="104"/>
    <text x="68" y="134" text-anchor="middle" font-family="-apple-system, BlinkMacSystemFont, 'Segoe UI', sans-serif" font-size="14" font-weight="700" fill="#f8fafc">中文内容</text>
    <text x="68" y="151" text-anchor="middle" font-family="-apple-system, BlinkMacSystemFont, 'Segoe UI', sans-serif" font-size="9" fill="#94a3b8">chinese-content.png</text>
  </g>
  <g transform="translate(372 230)">
    <rect x="0" y="0" width="136" height="162" rx="16" fill="#111827"/>
    <rect x="0.5" y="0.5" width="135" height="161" rx="15.5" fill="none" stroke="#ffffff" stroke-opacity=".08"/>
    <image href="emby.svg" x="16" y="12" width="104" height="104"/>
    <text x="68" y="134" text-anchor="middle" font-family="-apple-system, BlinkMacSystemFont, 'Segoe UI', sans-serif" font-size="14" font-weight="700" fill="#f8fafc">Emby</text>
    <text x="68" y="151" text-anchor="middle" font-family="-apple-system, BlinkMacSystemFont, 'Segoe UI', sans-serif" font-size="9" fill="#94a3b8">emby.png</text>
  </g>
  <g transform="translate(540 230)">
    <rect x="0" y="0" width="136" height="162" rx="16" fill="#111827"/>
    <rect x="0.5" y="0.5" width="135" height="161" rx="15.5" fill="none" stroke="#ffffff" stroke-opacity=".08"/>
    <image href="game.svg" x="16" y="12" width="104" height="104"/>
    <text x="68" y="134" text-anchor="middle" font-family="-apple-system, BlinkMacSystemFont, 'Segoe UI', sans-serif" font-size="14" font-weight="700" fill="#f8fafc">Game</text>
    <text x="68" y="151" text-anchor="middle" font-family="-apple-system, BlinkMacSystemFont, 'Segoe UI', sans-serif" font-size="9" fill="#94a3b8">game.png</text>
  </g>
  <g transform="translate(708 230)">
    <rect x="0" y="0" width="136" height="162" rx="16" fill="#111827"/>
    <rect x="0.5" y="0.5" width="135" height="161" rx="15.5" fill="none" stroke="#ffffff" stroke-opacity=".08"/>
    <image href="speedtest.svg" x="16" y="12" width="104" height="104"/>
    <text x="68" y="134" text-anchor="middle" font-family="-apple-system, BlinkMacSystemFont, 'Segoe UI', sans-serif" font-size="14" font-weight="700" fill="#f8fafc">SpeedTest</text>
    <text x="68" y="151" text-anchor="middle" font-family="-apple-system, BlinkMacSystemFont, 'Segoe UI', sans-serif" font-size="9" fill="#94a3b8">speedtest.png</text>
  </g>
  <g transform="translate(36 424)">
    <rect x="0" y="0" width="136" height="162" rx="16" fill="#111827"/>
    <rect x="0.5" y="0.5" width="135" height="161" rx="15.5" fill="none" stroke="#ffffff" stroke-opacity=".08"/>
    <image href="airport-collection.svg" x="16" y="12" width="104" height="104"/>
    <text x="68" y="134" text-anchor="middle" font-family="-apple-system, BlinkMacSystemFont, 'Segoe UI', sans-serif" font-size="14" font-weight="700" fill="#f8fafc">机场合集</text>
    <text x="68" y="151" text-anchor="middle" font-family="-apple-system, BlinkMacSystemFont, 'Segoe UI', sans-serif" font-size="9" fill="#94a3b8">airport-collection.png</text>
  </g>
  <g transform="translate(204 424)">
    <rect x="0" y="0" width="136" height="162" rx="16" fill="#111827"/>
    <rect x="0.5" y="0.5" width="135" height="161" rx="15.5" fill="none" stroke="#ffffff" stroke-opacity=".08"/>
    <image href="singapore.svg" x="16" y="12" width="104" height="104"/>
    <text x="68" y="134" text-anchor="middle" font-family="-apple-system, BlinkMacSystemFont, 'Segoe UI', sans-serif" font-size="14" font-weight="700" fill="#f8fafc">新加坡</text>
    <text x="68" y="151" text-anchor="middle" font-family="-apple-system, BlinkMacSystemFont, 'Segoe UI', sans-serif" font-size="9" fill="#94a3b8">singapore.png</text>
  </g>
  <g transform="translate(372 424)">
    <rect x="0" y="0" width="136" height="162" rx="16" fill="#111827"/>
    <rect x="0.5" y="0.5" width="135" height="161" rx="15.5" fill="none" stroke="#ffffff" stroke-opacity=".08"/>
    <image href="japan.svg" x="16" y="12" width="104" height="104"/>
    <text x="68" y="134" text-anchor="middle" font-family="-apple-system, BlinkMacSystemFont, 'Segoe UI', sans-serif" font-size="14" font-weight="700" fill="#f8fafc">日本</text>
    <text x="68" y="151" text-anchor="middle" font-family="-apple-system, BlinkMacSystemFont, 'Segoe UI', sans-serif" font-size="9" fill="#94a3b8">japan.png</text>
  </g>
  <g transform="translate(540 424)">
    <rect x="0" y="0" width="136" height="162" rx="16" fill="#111827"/>
    <rect x="0.5" y="0.5" width="135" height="161" rx="15.5" fill="none" stroke="#ffffff" stroke-opacity=".08"/>
    <image href="hong-kong.svg" x="16" y="12" width="104" height="104"/>
    <text x="68" y="134" text-anchor="middle" font-family="-apple-system, BlinkMacSystemFont, 'Segoe UI', sans-serif" font-size="14" font-weight="700" fill="#f8fafc">香港</text>
    <text x="68" y="151" text-anchor="middle" font-family="-apple-system, BlinkMacSystemFont, 'Segoe UI', sans-serif" font-size="9" fill="#94a3b8">hong-kong.png</text>
  </g>
  <g transform="translate(708 424)">
    <rect x="0" y="0" width="136" height="162" rx="16" fill="#111827"/>
    <rect x="0.5" y="0.5" width="135" height="161" rx="15.5" fill="none" stroke="#ffffff" stroke-opacity=".08"/>
    <image href="taiwan.svg" x="16" y="12" width="104" height="104"/>
    <text x="68" y="134" text-anchor="middle" font-family="-apple-system, BlinkMacSystemFont, 'Segoe UI', sans-serif" font-size="14" font-weight="700" fill="#f8fafc">台湾</text>
    <text x="68" y="151" text-anchor="middle" font-family="-apple-system, BlinkMacSystemFont, 'Segoe UI', sans-serif" font-size="9" fill="#94a3b8">taiwan.png</text>
  </g>
  <g transform="translate(36 618)">
    <rect x="0" y="0" width="136" height="162" rx="16" fill="#111827"/>
    <rect x="0.5" y="0.5" width="135" height="161" rx="15.5" fill="none" stroke="#ffffff" stroke-opacity=".08"/>
    <image href="korea.svg" x="16" y="12" width="104" height="104"/>
    <text x="68" y="134" text-anchor="middle" font-family="-apple-system, BlinkMacSystemFont, 'Segoe UI', sans-serif" font-size="14" font-weight="700" fill="#f8fafc">韩国</text>
    <text x="68" y="151" text-anchor="middle" font-family="-apple-system, BlinkMacSystemFont, 'Segoe UI', sans-serif" font-size="9" fill="#94a3b8">korea.png</text>
  </g>
  <g transform="translate(204 618)">
    <rect x="0" y="0" width="136" height="162" rx="16" fill="#111827"/>
    <rect x="0.5" y="0.5" width="135" height="161" rx="15.5" fill="none" stroke="#ffffff" stroke-opacity=".08"/>
    <image href="united-states.svg" x="16" y="12" width="104" height="104"/>
    <text x="68" y="134" text-anchor="middle" font-family="-apple-system, BlinkMacSystemFont, 'Segoe UI', sans-serif" font-size="14" font-weight="700" fill="#f8fafc">美国</text>
    <text x="68" y="151" text-anchor="middle" font-family="-apple-system, BlinkMacSystemFont, 'Segoe UI', sans-serif" font-size="9" fill="#94a3b8">united-states.png</text>
  </g>
  <g transform="translate(372 618)">
    <rect x="0" y="0" width="136" height="162" rx="16" fill="#111827"/>
    <rect x="0.5" y="0.5" width="135" height="161" rx="15.5" fill="none" stroke="#ffffff" stroke-opacity=".08"/>
    <image href="united-kingdom.svg" x="16" y="12" width="104" height="104"/>
    <text x="68" y="134" text-anchor="middle" font-family="-apple-system, BlinkMacSystemFont, 'Segoe UI', sans-serif" font-size="14" font-weight="700" fill="#f8fafc">英国</text>
    <text x="68" y="151" text-anchor="middle" font-family="-apple-system, BlinkMacSystemFont, 'Segoe UI', sans-serif" font-size="9" fill="#94a3b8">united-kingdom.png</text>
  </g>
  <g transform="translate(540 618)">
    <rect x="0" y="0" width="136" height="162" rx="16" fill="#111827"/>
    <rect x="0.5" y="0.5" width="135" height="161" rx="15.5" fill="none" stroke="#ffffff" stroke-opacity=".08"/>
    <image href="stream.svg" x="16" y="12" width="104" height="104"/>
    <text x="68" y="134" text-anchor="middle" font-family="-apple-system, BlinkMacSystemFont, 'Segoe UI', sans-serif" font-size="14" font-weight="700" fill="#f8fafc">STREAM</text>
    <text x="68" y="151" text-anchor="middle" font-family="-apple-system, BlinkMacSystemFont, 'Segoe UI', sans-serif" font-size="9" fill="#94a3b8">stream.png</text>
  </g>
  <g transform="translate(708 618)">
    <rect x="0" y="0" width="136" height="162" rx="16" fill="#111827"/>
    <rect x="0.5" y="0.5" width="135" height="161" rx="15.5" fill="none" stroke="#ffffff" stroke-opacity=".08"/>
    <image href="tiktok.svg" x="16" y="12" width="104" height="104"/>
    <text x="68" y="134" text-anchor="middle" font-family="-apple-system, BlinkMacSystemFont, 'Segoe UI', sans-serif" font-size="14" font-weight="700" fill="#f8fafc">TIKTOK</text>
    <text x="68" y="151" text-anchor="middle" font-family="-apple-system, BlinkMacSystemFont, 'Segoe UI', sans-serif" font-size="9" fill="#94a3b8">tiktok.png</text>
  </g>
</svg>
