<svg xmlns="http://www.w3.org/2000/svg" width="1012" height="976" viewBox="0 0 1012 976">
  <rect width="1012" height="976" fill="#0f172a"/>
  <text x="36" y="26" font-family="-apple-system, BlinkMacSystemFont, 'Segoe UI', sans-serif" font-size="18" font-weight="800" fill="#f8fafc">Surge Policy Group Icons</text>

  <g transform="translate(36 36)">
    <rect x="0" y="0" width="164" height="204" rx="30" fill="#ffffff" opacity=".07" stroke="#ffffff" stroke-opacity=".12"/>
    <image href="proxy.svg" x="26" y="18" width="112" height="112"/>
    <text x="82" y="164" text-anchor="middle" font-family="-apple-system, BlinkMacSystemFont, 'Segoe UI', sans-serif" font-size="17" font-weight="700" fill="#f8fafc">PROXY</text>
    <text x="82" y="188" text-anchor="middle" font-family="-apple-system, BlinkMacSystemFont, 'Segoe UI', sans-serif" font-size="11" fill="#94a3b8">proxy.png</text>
  </g>
  <g transform="translate(224 36)">
    <rect x="0" y="0" width="164" height="204" rx="30" fill="#ffffff" opacity=".07" stroke="#ffffff" stroke-opacity=".12"/>
    <image href="auto.svg" x="26" y="18" width="112" height="112"/>
    <text x="82" y="164" text-anchor="middle" font-family="-apple-system, BlinkMacSystemFont, 'Segoe UI', sans-serif" font-size="17" font-weight="700" fill="#f8fafc">Auto</text>
    <text x="82" y="188" text-anchor="middle" font-family="-apple-system, BlinkMacSystemFont, 'Segoe UI', sans-serif" font-size="11" fill="#94a3b8">auto.png</text>
  </g>
  <g transform="translate(412 36)">
    <rect x="0" y="0" width="164" height="204" rx="30" fill="#ffffff" opacity=".07" stroke="#ffffff" stroke-opacity=".12"/>
    <image href="final.svg" x="26" y="18" width="112" height="112"/>
    <text x="82" y="164" text-anchor="middle" font-family="-apple-system, BlinkMacSystemFont, 'Segoe UI', sans-serif" font-size="17" font-weight="700" fill="#f8fafc">FINAL</text>
    <text x="82" y="188" text-anchor="middle" font-family="-apple-system, BlinkMacSystemFont, 'Segoe UI', sans-serif" font-size="11" fill="#94a3b8">final.png</text>
  </g>
  <g transform="translate(600 36)">
    <rect x="0" y="0" width="164" height="204" rx="30" fill="#ffffff" opacity=".07" stroke="#ffffff" stroke-opacity=".12"/>
    <image href="intl-services.svg" x="26" y="18" width="112" height="112"/>
    <text x="82" y="164" text-anchor="middle" font-family="-apple-system, BlinkMacSystemFont, 'Segoe UI', sans-serif" font-size="17" font-weight="700" fill="#f8fafc">国际基础服务</text>
    <text x="82" y="188" text-anchor="middle" font-family="-apple-system, BlinkMacSystemFont, 'Segoe UI', sans-serif" font-size="11" fill="#94a3b8">intl-services.png</text>
  </g>
  <g transform="translate(788 36)">
    <rect x="0" y="0" width="164" height="204" rx="30" fill="#ffffff" opacity=".07" stroke="#ffffff" stroke-opacity=".12"/>
    <image href="ai.svg" x="26" y="18" width="112" height="112"/>
    <text x="82" y="164" text-anchor="middle" font-family="-apple-system, BlinkMacSystemFont, 'Segoe UI', sans-serif" font-size="17" font-weight="700" fill="#f8fafc">AI</text>
    <text x="82" y="188" text-anchor="middle" font-family="-apple-system, BlinkMacSystemFont, 'Segoe UI', sans-serif" font-size="11" fill="#94a3b8">ai.png</text>
  </g>
  <g transform="translate(36 262)">
    <rect x="0" y="0" width="164" height="204" rx="30" fill="#ffffff" opacity=".07" stroke="#ffffff" stroke-opacity=".12"/>
    <image href="global-community.svg" x="26" y="18" width="112" height="112"/>
    <text x="82" y="164" text-anchor="middle" font-family="-apple-system, BlinkMacSystemFont, 'Segoe UI', sans-serif" font-size="17" font-weight="700" fill="#f8fafc">国际社区</text>
    <text x="82" y="188" text-anchor="middle" font-family="-apple-system, BlinkMacSystemFont, 'Segoe UI', sans-serif" font-size="11" fill="#94a3b8">global-community.png</text>
  </g>
  <g transform="translate(224 262)">
    <rect x="0" y="0" width="164" height="204" rx="30" fill="#ffffff" opacity=".07" stroke="#ffffff" stroke-opacity=".12"/>
    <image href="chinese-content.svg" x="26" y="18" width="112" height="112"/>
    <text x="82" y="164" text-anchor="middle" font-family="-apple-system, BlinkMacSystemFont, 'Segoe UI', sans-serif" font-size="17" font-weight="700" fill="#f8fafc">中文内容</text>
    <text x="82" y="188" text-anchor="middle" font-family="-apple-system, BlinkMacSystemFont, 'Segoe UI', sans-serif" font-size="11" fill="#94a3b8">chinese-content.png</text>
  </g>
  <g transform="translate(412 262)">
    <rect x="0" y="0" width="164" height="204" rx="30" fill="#ffffff" opacity=".07" stroke="#ffffff" stroke-opacity=".12"/>
    <image href="emby.svg" x="26" y="18" width="112" height="112"/>
    <text x="82" y="164" text-anchor="middle" font-family="-apple-system, BlinkMacSystemFont, 'Segoe UI', sans-serif" font-size="17" font-weight="700" fill="#f8fafc">Emby</text>
    <text x="82" y="188" text-anchor="middle" font-family="-apple-system, BlinkMacSystemFont, 'Segoe UI', sans-serif" font-size="11" fill="#94a3b8">emby.png</text>
  </g>
  <g transform="translate(600 262)">
    <rect x="0" y="0" width="164" height="204" rx="30" fill="#ffffff" opacity=".07" stroke="#ffffff" stroke-opacity=".12"/>
    <image href="game.svg" x="26" y="18" width="112" height="112"/>
    <text x="82" y="164" text-anchor="middle" font-family="-apple-system, BlinkMacSystemFont, 'Segoe UI', sans-serif" font-size="17" font-weight="700" fill="#f8fafc">Game</text>
    <text x="82" y="188" text-anchor="middle" font-family="-apple-system, BlinkMacSystemFont, 'Segoe UI', sans-serif" font-size="11" fill="#94a3b8">game.png</text>
  </g>
  <g transform="translate(788 262)">
    <rect x="0" y="0" width="164" height="204" rx="30" fill="#ffffff" opacity=".07" stroke="#ffffff" stroke-opacity=".12"/>
    <image href="speedtest.svg" x="26" y="18" width="112" height="112"/>
    <text x="82" y="164" text-anchor="middle" font-family="-apple-system, BlinkMacSystemFont, 'Segoe UI', sans-serif" font-size="17" font-weight="700" fill="#f8fafc">SpeedTest</text>
    <text x="82" y="188" text-anchor="middle" font-family="-apple-system, BlinkMacSystemFont, 'Segoe UI', sans-serif" font-size="11" fill="#94a3b8">speedtest.png</text>
  </g>
  <g transform="translate(36 488)">
    <rect x="0" y="0" width="164" height="204" rx="30" fill="#ffffff" opacity=".07" stroke="#ffffff" stroke-opacity=".12"/>
    <image href="airport-collection.svg" x="26" y="18" width="112" height="112"/>
    <text x="82" y="164" text-anchor="middle" font-family="-apple-system, BlinkMacSystemFont, 'Segoe UI', sans-serif" font-size="17" font-weight="700" fill="#f8fafc">机场合集</text>
    <text x="82" y="188" text-anchor="middle" font-family="-apple-system, BlinkMacSystemFont, 'Segoe UI', sans-serif" font-size="11" fill="#94a3b8">airport-collection.png</text>
  </g>
  <g transform="translate(224 488)">
    <rect x="0" y="0" width="164" height="204" rx="30" fill="#ffffff" opacity=".07" stroke="#ffffff" stroke-opacity=".12"/>
    <image href="singapore.svg" x="26" y="18" width="112" height="112"/>
    <text x="82" y="164" text-anchor="middle" font-family="-apple-system, BlinkMacSystemFont, 'Segoe UI', sans-serif" font-size="17" font-weight="700" fill="#f8fafc">新加坡</text>
    <text x="82" y="188" text-anchor="middle" font-family="-apple-system, BlinkMacSystemFont, 'Segoe UI', sans-serif" font-size="11" fill="#94a3b8">singapore.png</text>
  </g>
  <g transform="translate(412 488)">
    <rect x="0" y="0" width="164" height="204" rx="30" fill="#ffffff" opacity=".07" stroke="#ffffff" stroke-opacity=".12"/>
    <image href="japan.svg" x="26" y="18" width="112" height="112"/>
    <text x="82" y="164" text-anchor="middle" font-family="-apple-system, BlinkMacSystemFont, 'Segoe UI', sans-serif" font-size="17" font-weight="700" fill="#f8fafc">日本</text>
    <text x="82" y="188" text-anchor="middle" font-family="-apple-system, BlinkMacSystemFont, 'Segoe UI', sans-serif" font-size="11" fill="#94a3b8">japan.png</text>
  </g>
  <g transform="translate(600 488)">
    <rect x="0" y="0" width="164" height="204" rx="30" fill="#ffffff" opacity=".07" stroke="#ffffff" stroke-opacity=".12"/>
    <image href="hong-kong.svg" x="26" y="18" width="112" height="112"/>
    <text x="82" y="164" text-anchor="middle" font-family="-apple-system, BlinkMacSystemFont, 'Segoe UI', sans-serif" font-size="17" font-weight="700" fill="#f8fafc">香港</text>
    <text x="82" y="188" text-anchor="middle" font-family="-apple-system, BlinkMacSystemFont, 'Segoe UI', sans-serif" font-size="11" fill="#94a3b8">hong-kong.png</text>
  </g>
  <g transform="translate(788 488)">
    <rect x="0" y="0" width="164" height="204" rx="30" fill="#ffffff" opacity=".07" stroke="#ffffff" stroke-opacity=".12"/>
    <image href="taiwan.svg" x="26" y="18" width="112" height="112"/>
    <text x="82" y="164" text-anchor="middle" font-family="-apple-system, BlinkMacSystemFont, 'Segoe UI', sans-serif" font-size="17" font-weight="700" fill="#f8fafc">台湾</text>
    <text x="82" y="188" text-anchor="middle" font-family="-apple-system, BlinkMacSystemFont, 'Segoe UI', sans-serif" font-size="11" fill="#94a3b8">taiwan.png</text>
  </g>
  <g transform="translate(36 714)">
    <rect x="0" y="0" width="164" height="204" rx="30" fill="#ffffff" opacity=".07" stroke="#ffffff" stroke-opacity=".12"/>
    <image href="korea.svg" x="26" y="18" width="112" height="112"/>
    <text x="82" y="164" text-anchor="middle" font-family="-apple-system, BlinkMacSystemFont, 'Segoe UI', sans-serif" font-size="17" font-weight="700" fill="#f8fafc">韩国</text>
    <text x="82" y="188" text-anchor="middle" font-family="-apple-system, BlinkMacSystemFont, 'Segoe UI', sans-serif" font-size="11" fill="#94a3b8">korea.png</text>
  </g>
  <g transform="translate(224 714)">
    <rect x="0" y="0" width="164" height="204" rx="30" fill="#ffffff" opacity=".07" stroke="#ffffff" stroke-opacity=".12"/>
    <image href="united-states.svg" x="26" y="18" width="112" height="112"/>
    <text x="82" y="164" text-anchor="middle" font-family="-apple-system, BlinkMacSystemFont, 'Segoe UI', sans-serif" font-size="17" font-weight="700" fill="#f8fafc">美国</text>
    <text x="82" y="188" text-anchor="middle" font-family="-apple-system, BlinkMacSystemFont, 'Segoe UI', sans-serif" font-size="11" fill="#94a3b8">united-states.png</text>
  </g>
  <g transform="translate(412 714)">
    <rect x="0" y="0" width="164" height="204" rx="30" fill="#ffffff" opacity=".07" stroke="#ffffff" stroke-opacity=".12"/>
    <image href="united-kingdom.svg" x="26" y="18" width="112" height="112"/>
    <text x="82" y="164" text-anchor="middle" font-family="-apple-system, BlinkMacSystemFont, 'Segoe UI', sans-serif" font-size="17" font-weight="700" fill="#f8fafc">英国</text>
    <text x="82" y="188" text-anchor="middle" font-family="-apple-system, BlinkMacSystemFont, 'Segoe UI', sans-serif" font-size="11" fill="#94a3b8">united-kingdom.png</text>
  </g>
  <g transform="translate(600 714)">
    <rect x="0" y="0" width="164" height="204" rx="30" fill="#ffffff" opacity=".07" stroke="#ffffff" stroke-opacity=".12"/>
    <image href="stream.svg" x="26" y="18" width="112" height="112"/>
    <text x="82" y="164" text-anchor="middle" font-family="-apple-system, BlinkMacSystemFont, 'Segoe UI', sans-serif" font-size="17" font-weight="700" fill="#f8fafc">STREAM</text>
    <text x="82" y="188" text-anchor="middle" font-family="-apple-system, BlinkMacSystemFont, 'Segoe UI', sans-serif" font-size="11" fill="#94a3b8">stream.png</text>
  </g>
  <g transform="translate(788 714)">
    <rect x="0" y="0" width="164" height="204" rx="30" fill="#ffffff" opacity=".07" stroke="#ffffff" stroke-opacity=".12"/>
    <image href="tiktok.svg" x="26" y="18" width="112" height="112"/>
    <text x="82" y="164" text-anchor="middle" font-family="-apple-system, BlinkMacSystemFont, 'Segoe UI', sans-serif" font-size="17" font-weight="700" fill="#f8fafc">TIKTOK</text>
    <text x="82" y="188" text-anchor="middle" font-family="-apple-system, BlinkMacSystemFont, 'Segoe UI', sans-serif" font-size="11" fill="#94a3b8">tiktok.png</text>
  </g>
</svg>
