<svg xmlns="http://www.w3.org/2000/svg" width="144" height="144" viewBox="0 0 144 144" role="img" aria-label="新加坡 / SG">
  <defs>
    <filter id="shadow" x="-25%" y="-25%" width="150%" height="160%">
      <feDropShadow dx="0" dy="4" stdDeviation="4" flood-color="#000000" flood-opacity=".18"/>
    </filter>
  </defs>
  <g filter="url(#shadow)">
    <clipPath id="flag"><rect x="13" y="28" width="118" height="88" rx="9"/></clipPath>
    <rect x="13" y="28" width="118" height="88" rx="9" fill="#f8fafc"/>
    <g clip-path="url(#flag)">
      <rect x="13" y="28" width="118" height="44" fill="#d21f45"/>
      <rect x="13" y="72" width="118" height="44" fill="#f8fafc"/>
      <circle cx="40" cy="50" r="16" fill="#f8fafc"/>
      <circle cx="47" cy="50" r="16" fill="#d21f45"/>
      <path d="M67 39l2.8 5.5 6.1.9-4.4 4.3 1 6-5.5-2.9-5.4 2.9 1-6-4.5-4.3 6.2-.9zM85 49l2.8 5.5 6.1.9-4.4 4.3 1 6-5.5-2.9-5.4 2.9 1-6-4.5-4.3 6.2-.9zM67 63l2.8 5.5 6.1.9-4.4 4.3 1 6-5.5-2.9-5.4 2.9 1-6-4.5-4.3 6.2-.9z" fill="#f8fafc"/>
    </g>
    <rect x="13" y="28" width="118" height="88" rx="9" fill="none" stroke="#ffffff" stroke-width="2" stroke-opacity=".85"/>
  </g>
</svg>
