<svg xmlns="http://www.w3.org/2000/svg" width="512" height="512" viewBox="0 0 512 512" role="img" aria-label="新加坡 / SG">
  <defs>
    <linearGradient id="bg" x1="94" y1="50" x2="420" y2="468" gradientUnits="userSpaceOnUse">
      <stop offset="0" stop-color="#1b1c1f"/>
      <stop offset=".58" stop-color="#090a0c"/>
      <stop offset="1" stop-color="#000000"/>
    </linearGradient>
    <radialGradient id="sheen" cx="0" cy="0" r="1" gradientUnits="userSpaceOnUse" gradientTransform="translate(164 104) rotate(42) scale(326)">
      <stop offset="0" stop-color="#ffffff" stop-opacity=".17"/>
      <stop offset=".44" stop-color="#ffffff" stop-opacity=".055"/>
      <stop offset="1" stop-color="#ffffff" stop-opacity="0"/>
    </radialGradient>
    <filter id="markShadow" x="-18%" y="-18%" width="136%" height="148%">
      <feDropShadow dx="0" dy="10" stdDeviation="12" flood-color="#000000" flood-opacity=".38"/>
    </filter>
  </defs>
  <rect x="24" y="24" width="464" height="464" rx="118" fill="url(#bg)"/>
  <rect x="25.5" y="25.5" width="461" height="461" rx="116.5" fill="none" stroke="#f8f3e8" stroke-width="3" stroke-opacity=".13"/>
  <rect x="51" y="51" width="410" height="410" rx="96" fill="none" stroke="#f8f3e8" stroke-width="1.5" stroke-opacity=".07"/>
  <circle cx="154" cy="105" r="214" fill="url(#sheen)"/>
  <path d="M104 392c48 24 100 36 156 36 54 0 104-10 150-31" fill="none" stroke="#f8f3e8" stroke-width="10" stroke-linecap="round" stroke-opacity=".045"/>
  <g filter="url(#markShadow)">

    <clipPath id="flagClip"><rect x="120" y="166" width="272" height="181" rx="26"/></clipPath>
    <rect x="120" y="166" width="272" height="181" rx="26" fill="#f6f1e8" opacity=".96"/>
    <g clip-path="url(#flagClip)">
      <rect x="120" y="166" width="272" height="91" fill="#a91d2d"/>
      <rect x="120" y="257" width="272" height="90" fill="#f6f1e8"/>
    </g>
    <rect x="120" y="166" width="272" height="181" rx="26" fill="none" stroke="#f6f1e8" stroke-width="14"/>
    <circle cx="176" cy="211" r="31" fill="#f6f1e8"/>
    <circle cx="189" cy="211" r="31" fill="#a91d2d"/>
    <path d="M233 189l5 10 11 2-8 8 2 11-10-5-10 5 2-11-8-8 11-2zM263 205l5 10 11 2-8 8 2 11-10-5-10 5 2-11-8-8 11-2zM233 230l5 10 11 2-8 8 2 11-10-5-10 5 2-11-8-8 11-2z" fill="#f6f1e8"/>
    <path d="M151 383h210" fill="none" stroke="#f6f1e8" stroke-width="14" stroke-linecap="round"/>

  </g>
</svg>
