<svg xmlns="http://www.w3.org/2000/svg" width="144" height="144" viewBox="0 0 144 144" role="img" aria-label="台湾 / TW">
  <defs>
    <filter id="shadow" x="-25%" y="-25%" width="150%" height="160%">
      <feDropShadow dx="0" dy="4" stdDeviation="4" flood-color="#000000" flood-opacity=".18"/>
    </filter>
  </defs>
  <g filter="url(#shadow)">
    <clipPath id="flag"><rect x="13" y="28" width="118" height="88" rx="9"/></clipPath>
    <rect x="13" y="28" width="118" height="88" rx="9" fill="#f8fafc"/>
    <g clip-path="url(#flag)">
      <rect x="13" y="28" width="118" height="88" fill="#d21f45"/>
      <rect x="13" y="28" width="59" height="44" fill="#23477d"/>
      <g transform="translate(42.5 50)">
        <circle r="11" fill="#f8fafc"/>
        <path d="M0-25v8M0 17v8M-25 0h8M17 0h8M-18-18l6 6M12 12l6 6M18-18l-6 6M-12 12l-6 6M-23-10l8 3M15 7l8 3M23-10l-8 3M-15 7l-8 3M-10-23l3 8M7 15l3 8M10-23l-3 8M-7 15l-3 8" stroke="#f8fafc" stroke-width="3.5" stroke-linecap="round"/>
      </g>
    </g>
    <rect x="13" y="28" width="118" height="88" rx="9" fill="none" stroke="#ffffff" stroke-width="2" stroke-opacity=".85"/>
  </g>
</svg>
