<svg xmlns="http://www.w3.org/2000/svg" width="144" height="144" viewBox="0 0 144 144" role="img" aria-label="TIKTOK">
  <defs>
    <filter id="shadow" x="-25%" y="-25%" width="150%" height="160%">
      <feDropShadow dx="0" dy="4" stdDeviation="4" flood-color="#000000" flood-opacity=".18"/>
    </filter>
  </defs>
  <g filter="url(#shadow)">
    <path d="M80 26v69c0 18-14 33-34 33-16 0-29-12-29-27 0-16 13-28 30-28 5 0 9 1 13 3" fill="none" stroke="#8f9bb3" stroke-width="9" stroke-linecap="round" stroke-linejoin="round"/>
    <path d="M80 26c7 20 20 31 39 34" fill="none" stroke="#8f9bb3" stroke-width="9" stroke-linecap="round" stroke-linejoin="round"/>
    <path d="M63 96c0 9-7 16-17 16-7 0-13-5-13-11 0-7 6-12 14-12" fill="none" stroke="#b7c0d3" stroke-width="5" stroke-linecap="round" stroke-linejoin="round"/>
  </g>
</svg>
