<svg xmlns="http://www.w3.org/2000/svg" width="144" height="144" viewBox="0 0 144 144" role="img" aria-label="美国 / US">
  <defs>
    <filter id="shadow" x="-25%" y="-25%" width="150%" height="160%">
      <feDropShadow dx="0" dy="4" stdDeviation="4" flood-color="#000000" flood-opacity=".18"/>
    </filter>
  </defs>
  <g filter="url(#shadow)">
    <clipPath id="flag"><rect x="13" y="28" width="118" height="88" rx="9"/></clipPath>
    <rect x="13" y="28" width="118" height="88" rx="9" fill="#f8fafc"/>
    <g clip-path="url(#flag)">
      <rect x="13" y="28" width="118" height="88" fill="#f8fafc"/>
      <path d="M13 36h118M13 52h118M13 68h118M13 84h118M13 100h118" stroke="#d21f45" stroke-width="8"/>
      <rect x="13" y="28" width="54" height="49" fill="#23477d"/>
      <path d="M39 38l4 8 9 1.3-6.5 6.3 1.5 9-8-4.2-8 4.2 1.5-9-6.5-6.3 9-1.3z" fill="#f8fafc"/>
    </g>
    <rect x="13" y="28" width="118" height="88" rx="9" fill="none" stroke="#ffffff" stroke-width="2" stroke-opacity=".85"/>
  </g>
</svg>
